<?xml version="1.0" encoding="UTF-8" standalone="no" ?>
<!DOCTYPE svg PUBLIC "-//W3C//DTD SVG 1.1//EN" "http://www.w3.org/Graphics/SVG/1.1/DTD/svg11.dtd">
<svg xmlns="http://www.w3.org/2000/svg" xmlns:xlink="http://www.w3.org/1999/xlink" version="1.1" width="512" height="512" viewBox="0 0 756 756" xml:space="preserve">
<desc>Created with Fabric.js 5.2.4</desc>
<defs>
</defs>
<g transform="matrix(1 0 0 1 540 540)" id="beef9158-5ec8-4a0c-8ee6-d6113704e99c"  >
<rect style="stroke: none; stroke-width: 1; stroke-dasharray: none; stroke-linecap: butt; stroke-dashoffset: 0; stroke-linejoin: miter; stroke-miterlimit: 4; fill: rgb(255,255,255); fill-rule: nonzero; opacity: 1; visibility: hidden;" vector-effect="non-scaling-stroke"  x="-540" y="-540" rx="0" ry="0" width="1080" height="1080" />
</g>
<g transform="matrix(1 0 0 1 540 540)" id="9a1bc3be-5fa4-4249-87bd-f588de4f9768"  >
</g>
<g transform="matrix(1 0 0 1 377.66 377.72)"  >
<g style="" vector-effect="non-scaling-stroke"   >
		<g transform="matrix(2 0 0 2 0 0)" id="rect30"  >
<rect style="stroke: none; stroke-width: 0.494654; stroke-dasharray: none; stroke-linecap: butt; stroke-dashoffset: 0; stroke-linejoin: miter; stroke-miterlimit: 4; fill: rgb(68,138,255); fill-rule: nonzero; opacity: 1;" vector-effect="non-scaling-stroke"  x="-182.5" y="-182.5" rx="7.1521459" ry="7.1521459" width="365" height="365" />
</g>
		<g transform="matrix(1 0 0 1 -11.72 -94.45)" id="path33"  >
<path style="stroke: none; stroke-width: 2; stroke-dasharray: none; stroke-linecap: butt; stroke-dashoffset: 0; stroke-linejoin: miter; stroke-miterlimit: 4; fill: rgb(255,255,255); fill-rule: nonzero; opacity: 1;" vector-effect="non-scaling-stroke"  transform=" translate(-489.41, -406)" d="M 614.48828 177.41406 C 585.03403 177.64615 555.102 180 528 180 C 509.268 180 474.11592 173.20281 457.41992 181.83789 C 441.12592 190.26483 422.34 188.47467 404 190.33789 C 365.3278 194.26683 326.787 197.16411 288 199.82031 C 261.38 201.64331 230.50279 201.95901 212.77539 226.25781 C 196.16547 249.02541 217.5264 250.08661 219.7832 270.00781 C 223.4616 302.47861 220 337.3084 220 370 C 220 424.688 216.64862 482.378 228.69922 536 C 234.13282 560.178 241.07448 585.21445 258.58008 603.81445 C 286.96128 633.96645 327.183 628.83584 364 632.33984 C 434.958 639.09184 507.266 629.02169 578 624.17969 C 620.728 621.25169 671.094 620.42538 710 600.35938 C 785.886 561.21938 770.028 472.564 770 402 C 769.978 343.7938 783.18837 263.01536 746.73438 213.03516 C 735.77437 198.01096 714.65742 193.13757 698.10742 187.56055 C 672.91842 179.07202 643.94253 177.18197 614.48828 177.41406 z M 451.28516 278.24414 C 508.18157 277.94477 575.51534 292.60888 617.99609 321.03906 C 665.52009 352.84446 673.38009 409.60016 625.99609 446.66016 C 609.19809 459.79816 583.47409 470.56595 561.99609 465.75195 C 553.62409 463.87395 546.58609 456.87805 537.99609 456.49805 C 522.09609 455.79605 512.77609 463.8217 495.99609 456.5957 C 476.36009 448.1397 462.80717 414.5508 471.20117 394.2168 C 474.36317 386.5588 491.70145 379.35103 497.93945 387.20703 C 508.38745 400.36503 494.40964 432.52702 516.18164 440.79102 C 530.60964 446.26702 534.58192 411.00817 555.66992 414.32617 C 563.02792 415.48417 559.99497 424.656 562.04297 430 C 565.00297 437.722 572.19609 445.56767 579.99609 448.51367 C 613.82609 461.29167 642.2743 406.694 629.9043 380 C 614.3683 346.4774 578.65809 326.98059 545.99609 313.90039 C 482.01609 288.27899 396.70598 263.8648 347.51758 330 C 318.46498 369.0616 331.97353 426.708 360.51953 462 C 409.14233 522.116 497.53009 557.79392 573.99609 553.91992 C 589.34209 553.14192 620.65517 534.20281 630.95117 522.88281 C 639.49717 513.48281 642.08522 495.18492 661.69922 503.79492 C 677.95722 510.93492 656.70214 530.07166 649.99414 535.34766 C 623.11814 556.49766 583.00409 562 549.99609 562 C 468.35409 562 372.36956 530.03 324.10156 460 C 268.98216 380.028 324.58909 293.80382 413.99609 280.85742 C 425.58059 279.17993 438.15521 278.31323 451.28516 278.24414 z" stroke-linecap="round" />
</g>
		<g transform="matrix(1 0 0 1 -0.29 232.94)" id="path39"  >
<path style="stroke: none; stroke-width: 2; stroke-dasharray: none; stroke-linecap: butt; stroke-dashoffset: 0; stroke-linejoin: miter; stroke-miterlimit: 4; fill: rgb(255,255,255); fill-rule: nonzero; opacity: 1;" vector-effect="non-scaling-stroke"  transform=" translate(-500.84, -733.38)" d="M 668.33594 643.47656 C 662.50706 643.55654 656.40463 644.00634 650 644.84766 C 557.68 656.97566 466.83 659.8418 374 659.8418 C 334.445 659.8418 285.9012 644.14103 248 660.95703 C 236.5832 666.02303 220.35223 674.28205 214.67383 685.99805 C 208.78323 698.15205 227.05259 701.474 224.27539 714 C 219.13139 737.202 163.19081 780.43105 192.00977 796.62305 C 213.03631 808.43705 243.23832 802.31272 265.85352 808.63672 C 272.15212 810.39872 271.30588 817.50928 276.70508 819.36328 C 297.12228 826.37328 330.3592 820 352 820 L 522 820 C 564.108 820 614.34895 827.63112 655.62695 819.70312 C 662.58095 818.36712 661.85506 809.62887 670.03906 808.29688 C 720.71106 800.04488 767.32912 814.45956 813.70312 783.85156 C 829.97513 773.11156 793.83588 738.344 786.17188 726 C 755.44819 676.52238 724.68174 642.70346 668.33594 643.47656 z M 632.96094 696.08594 C 656.9772 696.33526 670.5987 710.58 684.6582 732 C 687.2762 735.988 699.90202 751.25736 696.16602 755.94336 C 692.75802 760.21936 680.742 757.31823 676 757.49023 C 655.976 758.22223 636.016 761.75419 616 761.99219 C 537.304 762.92819 456.724 769.21231 378 763.82031 C 355.2814 762.26631 332.628 759.24231 310 756.57031 C 305.7648 756.07031 289.0863 758.23892 287.8125 752.79492 C 284.9009 740.34892 309.79135 708.10719 322.00195 708.11719 C 423.72835 708.20119 520.668 711.33947 622 696.85547 C 625.88675 696.29997 629.53004 696.05032 632.96094 696.08594 z" stroke-linecap="round" />
</g>
</g>
</g>
</svg>